<?xml version="1.0" standalone="no"?>
<!DOCTYPE svg PUBLIC "-//W3C//DTD SVG 20010904//EN"
 "http://www.w3.org/TR/2001/REC-SVG-20010904/DTD/svg10.dtd">
<svg version="1.0" xmlns="http://www.w3.org/2000/svg"
 width="500.000000pt" height="500.000000pt" viewBox="0 0 500.000000 500.000000"
 preserveAspectRatio="xMidYMid meet">
<metadata>
Created by potrace 1.14, written by Peter Selinger 2001-2017
</metadata>
<g transform="translate(0.000000,500.000000) scale(0.100000,-0.100000)"
fill="#000000" stroke="none">
<path d="M3309 4234 c-92 -16 -197 -53 -304 -106 -183 -92 -605 -406 -1165
-867 -63 -52 -148 -121 -188 -154 -40 -33 -70 -62 -68 -65 5 -4 992 493 1346
678 282 148 417 188 599 177 53 -3 116 -13 140 -21 102 -37 220 -160 258 -269
39 -114 12 -342 -87 -726 -34 -130 -38 -157 -27 -170 77 -91 232 -267 238
-269 7 -3 124 464 163 653 53 254 57 412 16 583 -37 153 -126 307 -221 384
-192 154 -450 218 -700 172z"/>
<path d="M1440 4220 c-103 -13 -188 -38 -290 -87 -177 -85 -310 -253 -372
-469 -19 -65 -23 -103 -23 -219 0 -302 77 -470 438 -950 194 -257 750 -945
764 -945 3 0 -156 318 -353 708 -197 389 -380 750 -406 802 -70 138 -91 225
-92 390 0 117 2 142 22 190 45 113 152 215 267 255 109 38 342 10 713 -86 84
-21 157 -39 162 -39 12 0 277 232 279 245 5 23 -632 171 -844 196 -174 20
-170 20 -265 9z"/>
<path d="M3050 3397 c0 -8 567 -1131 680 -1347 119 -226 152 -317 170 -462 22
-187 -14 -312 -120 -418 -100 -100 -212 -138 -370 -125 -103 8 -321 51 -527
103 l-152 39 -138 -119 c-76 -66 -139 -123 -141 -127 -4 -12 218 -69 583 -150
178 -40 399 -65 500 -57 111 8 223 38 324 87 70 34 102 58 171 128 230 231
289 572 160 919 -76 203 -332 558 -917 1274 -180 219 -223 269 -223 255z"/>
<path d="M2405 2759 c-90 -22 -175 -118 -190 -214 -15 -104 54 -221 157 -265
197 -85 404 96 344 301 -39 135 -174 212 -311 178z"/>
<path d="M940 2473 c-23 -83 -121 -486 -152 -628 -29 -138 -32 -164 -32 -325
1 -148 4 -187 23 -255 69 -254 235 -430 485 -515 228 -78 484 -52 737 76 141
70 452 294 815 585 339 271 605 492 599 497 -2 2 -300 -146 -662 -329 -362
-184 -719 -364 -793 -402 -173 -87 -287 -117 -440 -117 -176 0 -287 50 -374
168 -70 97 -81 132 -81 272 1 137 28 290 104 584 l38 148 -119 137 c-66 75
-123 137 -128 139 -5 2 -14 -14 -20 -35z"/>
</g>
</svg>
